<svg width="258" height="230" viewBox="0 0 258 230" fill="none" xmlns="http://www.w3.org/2000/svg">
<path fill-rule="evenodd" clip-rule="evenodd" d="M56.3677 32.544C25.2367 50.5175 14.5704 90.3245 32.5439 121.456L50.6733 152.857C68.6468 183.988 108.454 194.654 139.585 176.68C170.716 158.707 181.382 118.9 163.409 87.769L145.279 56.3678C127.306 25.2368 87.4986 14.5705 56.3677 32.544ZM68.339 53.2788C47.2546 65.4519 40.0306 92.4123 52.2036 113.497L67.3959 139.81C79.569 160.895 106.529 168.119 127.614 155.946C148.698 143.773 155.922 116.812 143.749 95.7279L128.557 69.4142C116.384 48.3298 89.4233 41.1058 68.339 53.2788Z" fill="#F36E64"/>
<mask id="mask0_2117_552" style="mask-type:alpha" maskUnits="userSpaceOnUse" x="23" y="23" width="150" height="163">
<path fill-rule="evenodd" clip-rule="evenodd" d="M56.3677 32.544C25.2367 50.5175 14.5704 90.3245 32.5439 121.456L50.6733 152.857C68.6468 183.988 108.454 194.654 139.585 176.68C170.716 158.707 181.382 118.9 163.409 87.769L145.279 56.3678C127.306 25.2368 87.4986 14.5705 56.3677 32.544ZM68.339 53.2788C47.2546 65.4519 40.0306 92.4123 52.2036 113.497L67.3959 139.81C79.569 160.895 106.529 168.119 127.614 155.946C148.698 143.773 155.922 116.812 143.749 95.7279L128.557 69.4142C116.384 48.3298 89.4233 41.1058 68.339 53.2788Z" fill="#F36E64"/>
</mask>
<g mask="url(#mask0_2117_552)">
<g filter="url(#filter0_f_2117_552)">
<path d="M154.014 69.4944L145.744 64.8021L135.102 60.5915L126.729 62.0126L118.925 81.7366L141.512 81.4137L146.853 80.1206L151.685 75.3821L154.014 69.4944Z" fill="#99140A" fill-opacity="0.5"/>
</g>
<g filter="url(#filter1_f_2117_552)">
<path d="M122.864 152.127L114.654 156.923L105.669 164.013L102.695 171.968L115.835 188.619L126.895 168.924L128.458 163.655L126.786 157.097L122.864 152.127Z" fill="#99140A" fill-opacity="0.5"/>
</g>
</g>
<path fill-rule="evenodd" clip-rule="evenodd" d="M117.993 52.7325C86.8617 70.706 76.1954 110.513 94.1689 141.644L112.298 173.045C130.272 204.176 170.079 214.842 201.21 196.869C232.341 178.895 243.007 139.088 225.034 107.957L206.904 76.5563C188.931 45.4253 149.124 34.759 117.993 52.7325ZM129.655 72.9316C108.35 85.2317 101.051 112.473 113.351 133.778L128.702 160.366C141.002 181.67 168.243 188.97 189.548 176.67C210.852 164.37 218.151 137.128 205.851 115.824L190.501 89.2353C178.201 67.931 150.959 60.6316 129.655 72.9316Z" fill="#3580FD"/>
<defs>
<filter id="filter0_f_2117_552" x="110.781" y="52.4514" width="51.3746" height="37.4254" filterUnits="userSpaceOnUse" color-interpolation-filters="sRGB">
<feFlood flood-opacity="0" result="BackgroundImageFix"/>
<feBlend mode="normal" in="SourceGraphic" in2="BackgroundImageFix" result="shape"/>
<feGaussianBlur stdDeviation="4.07022" result="effect1_foregroundBlur_2117_552"/>
</filter>
<filter id="filter1_f_2117_552" x="94.5549" y="143.987" width="42.0465" height="52.7731" filterUnits="userSpaceOnUse" color-interpolation-filters="sRGB">
<feFlood flood-opacity="0" result="BackgroundImageFix"/>
<feBlend mode="normal" in="SourceGraphic" in2="BackgroundImageFix" result="shape"/>
<feGaussianBlur stdDeviation="4.07022" result="effect1_foregroundBlur_2117_552"/>
</filter>
</defs>
</svg>
